# xmcd
#
# Track frame offsets:
#	150
#	20519
#	33488
#	54021
#	69121
#	88571
#	103531
#	119119
#	132557
#	148758
#	166497
#	182475
#	200107
#	218035
#	230194
#	246204
#	264355
#	281541
#	297629
#	314889
#
# Disc length: 4417 seconds
#
# Revision: 1
# Processed by: cddbd v1.5.2PL0 Copyright (c) Steve Scherf et al.
# Submitted via: audiograbber 1.83.01
#
DISCID=3b113f14
DTITLE=Various Artist - Double Cream 4 - The Very Best Of Cream Of Country [Di
DTITLE=sc 2]
DYEAR=2012
DGENRE=Country
TTITLE0=Alan Jackson - Remember When
TTITLE1=Easton Corbin - A Little More Country Than That
TTITLE2=Lee Ann Womack - I May Hate Myself In The Morning
TTITLE3=Kenny Chesney - The Good Stuff
TTITLE4=Montgomery Gentry - Daddy Won't Sell The Farm
TTITLE5=Gretchen Wilson - You Don't Have To Go Home
TTITLE6=Clay Walker - She Won't Be Lonely Long
TTITLE7=Emerson Drive - A Good Man
TTITLE8=LeAnn Rimes - Good Friend and A Glass Of Wine
TTITLE9=James Otto - Just Got Started Lovin' You
TTITLE10=Big and Rich - Lost In This Moment
TTITLE11=Trisha Yearwood - The Song Remembers When
TTITLE12=Gary Allan - Today
TTITLE13=The Lost Trailers - How 'Bout You Don't
TTITLE14=The Kinleys - She Ain't The Girl For You
TTITLE15=Lonestar - You're Like Comin' Home
TTITLE16=Sons Of The Desert - Hand Of Fate
TTITLE17=Pam Tillis - Land Of The Living
TTITLE18=Ronnie Dunn - Bleed Red
TTITLE19=Steve Holy - Love Don't Run
EXTD=
EXTT0=
EXTT1=
EXTT2=
EXTT3=
EXTT4=
EXTT5=
EXTT6=
EXTT7=
EXTT8=
EXTT9=
EXTT10=
EXTT11=
EXTT12=
EXTT13=
EXTT14=
EXTT15=
EXTT16=
EXTT17=
EXTT18=
EXTT19=
PLAYORDER=
